<?xml version="1.0" encoding="UTF-8" standalone="no" ?>
<!DOCTYPE svg PUBLIC "-//W3C//DTD SVG 1.1//EN" "http://www.w3.org/Graphics/SVG/1.1/DTD/svg11.dtd">
<svg xmlns="http://www.w3.org/2000/svg" xmlns:xlink="http://www.w3.org/1999/xlink" version="1.1" width="500" height="500" viewBox="0 0 500 500" xml:space="preserve">
<desc>Created with Fabric.js 3.6.6</desc>
<defs>
</defs>
<g transform="matrix(1.44 0 0 1.44 250.67 250.67)"  >
<g style=""   >
		<g transform="matrix(1.33 0 0 1.33 -0.42 -0.42)"  >
<path style="stroke: none; stroke-width: 1; stroke-dasharray: none; stroke-linecap: butt; stroke-dashoffset: 0; stroke-linejoin: miter; stroke-miterlimit: 4; fill: rgb(4,52,129); fill-rule: nonzero; opacity: 1;"  transform=" translate(-187.5, -187.5)" d="M 187.5 312.667969 C 118.472656 312.667969 62.328125 256.523438 62.328125 187.5 C 62.328125 118.472656 118.472656 62.328125 187.5 62.328125 C 256.523438 62.328125 312.667969 118.472656 312.667969 187.5 C 312.667969 256.523438 256.523438 312.667969 187.5 312.667969 Z M 187.5 65.539062 C 120.238281 65.539062 65.539062 120.238281 65.539062 187.5 C 65.539062 254.757812 120.238281 309.457031 187.5 309.457031 C 254.757812 309.457031 309.457031 254.726562 309.457031 187.5 C 309.457031 120.238281 254.757812 65.539062 187.5 65.539062 Z M 187.5 65.539062" stroke-linecap="round" />
</g>
		<g transform="matrix(1.33 0 0 1.33 -0.27 -0.27)"  >
<path style="stroke: none; stroke-width: 1; stroke-dasharray: none; stroke-linecap: butt; stroke-dashoffset: 0; stroke-linejoin: miter; stroke-miterlimit: 4; fill: rgb(4,52,129); fill-rule: nonzero; opacity: 1;"  transform=" translate(-187.5, -187.5)" d="M 187.5 267.542969 C 143.367188 267.542969 107.457031 231.632812 107.457031 187.5 C 107.457031 143.367188 143.367188 107.457031 187.5 107.457031 C 231.632812 107.457031 267.542969 143.367188 267.542969 187.5 C 267.542969 231.632812 231.632812 267.542969 187.5 267.542969 Z M 187.5 110.667969 C 145.132812 110.667969 110.667969 145.132812 110.667969 187.5 C 110.667969 229.863281 145.132812 264.328125 187.5 264.328125 C 229.863281 264.328125 264.328125 229.863281 264.328125 187.5 C 264.328125 145.132812 229.863281 110.667969 187.5 110.667969 Z M 187.5 110.667969" stroke-linecap="round" />
</g>
		<g transform="matrix(1.33 0 0 1.33 -129.98 -8.34)"  >
<path style="stroke: none; stroke-width: 1; stroke-dasharray: none; stroke-linecap: butt; stroke-dashoffset: 0; stroke-linejoin: miter; stroke-miterlimit: 4; fill: rgb(240,125,0); fill-rule: nonzero; opacity: 1;"  transform=" translate(-90.04, -181.27)" d="M 90.046875 170.15625 L 93.65625 177.472656 L 101.730469 178.644531 L 95.886719 184.34375 L 97.269531 192.382812 L 90.046875 188.585938 L 82.820312 192.382812 L 84.199219 184.34375 L 78.359375 178.644531 L 86.433594 177.472656 Z M 90.046875 170.15625" stroke-linecap="round" />
</g>
		<g transform="matrix(1.33 0 0 1.33 -130.05 -8.44)"  >
<path style="stroke: none; stroke-width: 1; stroke-dasharray: none; stroke-linecap: butt; stroke-dashoffset: 0; stroke-linejoin: miter; stroke-miterlimit: 4; fill: rgb(240,125,0); fill-rule: nonzero; opacity: 1;"  transform=" translate(-89.99, -181.2)" d="M 89.992188 170.085938 L 93.605469 177.402344 L 101.679688 178.574219 L 95.835938 184.273438 L 97.214844 192.3125 L 89.992188 188.519531 L 82.769531 192.3125 L 84.148438 184.273438 L 78.304688 178.574219 L 86.378906 177.402344 Z M 89.992188 170.085938" stroke-linecap="round" />
</g>
		<g transform="matrix(1.33 0 0 1.33 -130.05 -8.44)"  >
<path style="stroke: none; stroke-width: 1; stroke-dasharray: none; stroke-linecap: butt; stroke-dashoffset: 0; stroke-linejoin: miter; stroke-miterlimit: 4; fill: rgb(240,125,0); fill-rule: nonzero; opacity: 1;"  transform=" translate(-89.99, -181.2)" d="M 89.992188 170.085938 L 93.605469 177.402344 L 101.679688 178.574219 L 95.835938 184.273438 L 97.214844 192.3125 L 89.992188 188.519531 L 82.769531 192.3125 L 84.148438 184.273438 L 78.304688 178.574219 L 86.378906 177.402344 Z M 89.992188 170.085938" stroke-linecap="round" />
</g>
		<g transform="matrix(1.33 0 0 1.33 -130.05 -8.44)"  >
<path style="stroke: none; stroke-width: 1; stroke-dasharray: none; stroke-linecap: butt; stroke-dashoffset: 0; stroke-linejoin: miter; stroke-miterlimit: 4; fill: rgb(240,125,0); fill-rule: nonzero; opacity: 1;"  transform=" translate(-89.99, -181.2)" d="M 89.992188 170.085938 L 93.605469 177.402344 L 101.679688 178.574219 L 95.835938 184.273438 L 97.214844 192.3125 L 89.992188 188.519531 L 82.769531 192.3125 L 84.148438 184.273438 L 78.304688 178.574219 L 86.378906 177.402344 Z M 89.992188 170.085938" stroke-linecap="round" />
</g>
		<g transform="matrix(1.33 0 0 1.33 129.97 -8.34)"  >
<path style="stroke: none; stroke-width: 1; stroke-dasharray: none; stroke-linecap: butt; stroke-dashoffset: 0; stroke-linejoin: miter; stroke-miterlimit: 4; fill: rgb(240,125,0); fill-rule: nonzero; opacity: 1;"  transform=" translate(-285, -181.27)" d="M 285.003906 170.15625 L 288.613281 177.472656 L 296.6875 178.644531 L 290.84375 184.34375 L 292.226562 192.382812 L 285.003906 188.585938 L 277.777344 192.382812 L 279.15625 184.34375 L 273.316406 178.644531 L 281.390625 177.472656 Z M 285.003906 170.15625" stroke-linecap="round" />
</g>
		<g transform="matrix(1.33 0 0 1.33 129.89 -8.44)"  >
<path style="stroke: none; stroke-width: 1; stroke-dasharray: none; stroke-linecap: butt; stroke-dashoffset: 0; stroke-linejoin: miter; stroke-miterlimit: 4; fill: rgb(240,125,0); fill-rule: nonzero; opacity: 1;"  transform=" translate(-284.95, -181.2)" d="M 284.949219 170.085938 L 288.5625 177.402344 L 296.636719 178.574219 L 290.792969 184.273438 L 292.171875 192.3125 L 284.949219 188.519531 L 277.726562 192.3125 L 279.105469 184.273438 L 273.261719 178.574219 L 281.335938 177.402344 Z M 284.949219 170.085938" stroke-linecap="round" />
</g>
		<g transform="matrix(1.33 0 0 1.33 129.89 -8.44)"  >
<path style="stroke: none; stroke-width: 1; stroke-dasharray: none; stroke-linecap: butt; stroke-dashoffset: 0; stroke-linejoin: miter; stroke-miterlimit: 4; fill: rgb(240,125,0); fill-rule: nonzero; opacity: 1;"  transform=" translate(-284.95, -181.2)" d="M 284.949219 170.085938 L 288.5625 177.402344 L 296.636719 178.574219 L 290.792969 184.273438 L 292.171875 192.3125 L 284.949219 188.519531 L 277.726562 192.3125 L 279.105469 184.273438 L 273.261719 178.574219 L 281.335938 177.402344 Z M 284.949219 170.085938" stroke-linecap="round" />
</g>
		<g transform="matrix(1.33 0 0 1.33 129.89 -8.44)"  >
<path style="stroke: none; stroke-width: 1; stroke-dasharray: none; stroke-linecap: butt; stroke-dashoffset: 0; stroke-linejoin: miter; stroke-miterlimit: 4; fill: rgb(240,125,0); fill-rule: nonzero; opacity: 1;"  transform=" translate(-284.95, -181.2)" d="M 284.949219 170.085938 L 288.5625 177.402344 L 296.636719 178.574219 L 290.792969 184.273438 L 292.171875 192.3125 L 284.949219 188.519531 L 277.726562 192.3125 L 279.105469 184.273438 L 273.261719 178.574219 L 281.335938 177.402344 Z M 284.949219 170.085938" stroke-linecap="round" />
</g>
		<g transform="matrix(1.33 0 0 1.33 -82.46 -107.07)"  >
<path style="stroke: none; stroke-width: 1; stroke-dasharray: none; stroke-linecap: butt; stroke-dashoffset: 0; stroke-linejoin: miter; stroke-miterlimit: 4; fill: rgb(0,0,0); fill-rule: nonzero; opacity: 1;"  transform=" translate(-2.28, 14.61)" d="M 15.265625 -11.953125 L 10.421875 -8.15625 L 2.546875 -11.765625 L 1.859375 -10 L 6.015625 -4.703125 L 1.703125 -1.34375 L -10.703125 -17.203125 L -6.390625 -20.5625 L -1 -13.671875 C -1.113281 -14.273438 -1.207031 -15.296875 -1.28125 -16.734375 L -1.734375 -24.203125 L 2.953125 -27.875 L 3.484375 -16.859375 Z M 15.265625 -11.953125" stroke-linecap="round" />
</g>
		<g transform="matrix(1.33 0 0 1.33 -45.99 -126.74)"  >
<path style="stroke: none; stroke-width: 1; stroke-dasharray: none; stroke-linecap: butt; stroke-dashoffset: 0; stroke-linejoin: miter; stroke-miterlimit: 4; fill: rgb(0,0,0); fill-rule: nonzero; opacity: 1;"  transform=" translate(-1.27, 11.13)" d="M 2.046875 -0.71875 L -4.65625 -19.71875 L 0.5 -21.546875 L 7.203125 -2.546875 Z M 2.046875 -0.71875" stroke-linecap="round" />
</g>
		<g transform="matrix(1.33 0 0 1.33 -2.92 -134.3)"  >
<path style="stroke: none; stroke-width: 1; stroke-dasharray: none; stroke-linecap: butt; stroke-dashoffset: 0; stroke-linejoin: miter; stroke-miterlimit: 4; fill: rgb(0,0,0); fill-rule: nonzero; opacity: 1;"  transform=" translate(-10.24, 10.17)" d="M 14.53125 -0.125 L 13.515625 -3.890625 L 6.96875 -3.84375 L 5.984375 -0.046875 L 0 0 L 6.40625 -20.28125 L 13.65625 -20.34375 L 20.484375 -0.171875 Z M 12.359375 -8.34375 L 11.453125 -11.640625 C 11.242188 -12.378906 10.988281 -13.328125 10.6875 -14.484375 C 10.394531 -15.648438 10.195312 -16.484375 10.09375 -16.984375 C 10.019531 -16.515625 9.863281 -15.742188 9.625 -14.671875 C 9.394531 -13.597656 8.875 -11.472656 8.0625 -8.296875 Z M 12.359375 -8.34375" stroke-linecap="round" />
</g>
		<g transform="matrix(1.33 0 0 1.33 42.61 -123.46)"  >
<path style="stroke: none; stroke-width: 1; stroke-dasharray: none; stroke-linecap: butt; stroke-dashoffset: 0; stroke-linejoin: miter; stroke-miterlimit: 4; fill: rgb(0,0,0); fill-rule: nonzero; opacity: 1;"  transform=" translate(-10.15, 4.43)" d="M 13.515625 5.34375 L 13.984375 1.453125 L 7.90625 -0.9375 L 5.5625 2.203125 L 0 0 L 13.5625 -16.390625 L 20.296875 -13.734375 L 19.046875 7.53125 Z M 14.578125 -3.09375 L 14.96875 -6.5 C 15.070312 -7.257812 15.203125 -8.234375 15.359375 -9.421875 C 15.515625 -10.617188 15.632812 -11.460938 15.71875 -11.953125 C 15.476562 -11.546875 15.046875 -10.890625 14.421875 -9.984375 C 13.804688 -9.078125 12.53125 -7.304688 10.59375 -4.671875 Z M 14.578125 -3.09375" stroke-linecap="round" />
</g>
		<g transform="matrix(1.33 0 0 1.33 90.82 -96.39)"  >
<path style="stroke: none; stroke-width: 1; stroke-dasharray: none; stroke-linecap: butt; stroke-dashoffset: 0; stroke-linejoin: miter; stroke-miterlimit: 4; fill: rgb(0,0,0); fill-rule: nonzero; opacity: 1;"  transform=" translate(-15.45, -1.05)" d="M 15.25 14.953125 L 10.15625 9.953125 L 14.828125 -5.328125 L 14.75 -5.40625 C 13.3125 -3.6875 12.179688 -2.410156 11.359375 -1.578125 L 5 4.90625 L 1.546875 1.515625 L 15.65625 -12.859375 L 20.734375 -7.875 L 16.15625 7.234375 L 16.21875 7.3125 C 17.550781 5.769531 18.644531 4.5625 19.5 3.6875 L 25.890625 -2.8125 L 29.359375 0.578125 Z M 15.25 14.953125" stroke-linecap="round" />
</g>
		<g transform="matrix(1.33 0 0 1.33 -105.95 77.36)"  >
<path style="stroke: none; stroke-width: 1; stroke-dasharray: none; stroke-linecap: butt; stroke-dashoffset: 0; stroke-linejoin: miter; stroke-miterlimit: 4; fill: rgb(0,0,0); fill-rule: nonzero; opacity: 1;"  transform=" translate(-13.17, -2.96)" d="M 17.40625 0.25 C 16.75 -0.71875 15.847656 -1.203125 14.703125 -1.203125 C 13.554688 -1.203125 12.296875 -0.734375 10.921875 0.203125 C 8.054688 2.140625 7.359375 4.195312 8.828125 6.375 C 9.273438 7.03125 9.800781 7.601562 10.40625 8.09375 C 11.007812 8.59375 11.644531 9.070312 12.3125 9.53125 L 8.921875 11.828125 C 7.535156 10.960938 6.304688 9.742188 5.234375 8.171875 C 3.710938 5.921875 3.195312 3.753906 3.6875 1.671875 C 4.1875 -0.410156 5.664062 -2.285156 8.125 -3.953125 C 9.664062 -5.003906 11.21875 -5.632812 12.78125 -5.84375 C 14.351562 -6.050781 15.820312 -5.820312 17.1875 -5.15625 C 18.5625 -4.5 19.75 -3.429688 20.75 -1.953125 C 21.832031 -0.347656 22.523438 1.425781 22.828125 3.375 L 18.796875 4.296875 C 18.691406 3.566406 18.539062 2.867188 18.34375 2.203125 C 18.144531 1.535156 17.832031 0.882812 17.40625 0.25 Z M 17.40625 0.25" stroke-linecap="round" />
</g>
		<g transform="matrix(1.33 0 0 1.33 -93.67 98.28)"  >
<path style="stroke: none; stroke-width: 1; stroke-dasharray: none; stroke-linecap: butt; stroke-dashoffset: 0; stroke-linejoin: miter; stroke-miterlimit: 4; fill: rgb(0,0,0); fill-rule: nonzero; opacity: 1;"  transform=" translate(-10.74, -2.02)" d="M 9.265625 9.09375 L 11 6.078125 L 6.8125 1.96875 L 3.8125 3.75 L 0 0 L 16.859375 -8.796875 L 21.484375 -4.25 L 13.0625 12.828125 Z M 13.078125 2.515625 L 14.578125 -0.140625 C 14.921875 -0.722656 15.363281 -1.476562 15.90625 -2.40625 C 16.445312 -3.34375 16.851562 -3.992188 17.125 -4.359375 C 16.769531 -4.117188 16.175781 -3.726562 15.34375 -3.1875 C 14.519531 -2.65625 12.851562 -1.644531 10.34375 -0.15625 Z M 13.078125 2.515625" stroke-linecap="round" />
</g>
		<g transform="matrix(1.33 0 0 1.33 -71.58 112.88)"  >
<path style="stroke: none; stroke-width: 1; stroke-dasharray: none; stroke-linecap: butt; stroke-dashoffset: 0; stroke-linejoin: miter; stroke-miterlimit: 4; fill: rgb(0,0,0); fill-rule: nonzero; opacity: 1;"  transform=" translate(-11.1, 2.3)" d="M 9.265625 -1.796875 L 5.71875 3.703125 L 1.640625 1.0625 L 11.40625 -14.046875 L 16.359375 -10.84375 C 20.460938 -8.1875 21.554688 -5.375 19.640625 -2.40625 C 18.503906 -0.65625 16.773438 0.140625 14.453125 -0.015625 L 14.59375 9.4375 L 9.953125 6.4375 L 10.296875 -1.125 Z M 11.265625 -4.859375 L 12.03125 -4.375 C 13.457031 -3.445312 14.578125 -3.617188 15.390625 -4.890625 C 16.066406 -5.929688 15.703125 -6.90625 14.296875 -7.8125 L 13.5 -8.328125 Z M 11.265625 -4.859375" stroke-linecap="round" />
</g>
		<g transform="matrix(1.33 0 0 1.33 -49.13 123.14)"  >
<path style="stroke: none; stroke-width: 1; stroke-dasharray: none; stroke-linecap: butt; stroke-dashoffset: 0; stroke-linejoin: miter; stroke-miterlimit: 4; fill: rgb(0,0,0); fill-rule: nonzero; opacity: 1;"  transform=" translate(-10.2, 5.51)" d="M 11.671875 4.859375 L 1.796875 0.75 L 8.71875 -15.875 L 18.59375 -11.765625 L 17.078125 -8.15625 L 11.703125 -10.40625 L 10.625 -7.796875 L 15.59375 -5.71875 L 14.09375 -2.109375 L 9.125 -4.1875 L 7.828125 -1.0625 L 13.203125 1.1875 Z M 11.671875 4.859375" stroke-linecap="round" />
</g>
		<g transform="matrix(1.33 0 0 1.33 -28.84 129.61)"  >
<path style="stroke: none; stroke-width: 1; stroke-dasharray: none; stroke-linecap: butt; stroke-dashoffset: 0; stroke-linejoin: miter; stroke-miterlimit: 4; fill: rgb(0,0,0); fill-rule: nonzero; opacity: 1;"  transform=" translate(-9.17, 7.09)" d="M 12.3125 2.890625 L 1.90625 0.453125 L 6.03125 -17.0625 L 16.4375 -14.625 L 15.546875 -10.828125 L 9.859375 -12.15625 L 9.203125 -9.40625 L 14.453125 -8.171875 L 13.5625 -4.359375 L 8.3125 -5.59375 L 7.53125 -2.296875 L 13.21875 -0.96875 Z M 12.3125 2.890625" stroke-linecap="round" />
</g>
		<g transform="matrix(1.33 0 0 1.33 -5.28 132.86)"  >
<path style="stroke: none; stroke-width: 1; stroke-dasharray: none; stroke-linecap: butt; stroke-dashoffset: 0; stroke-linejoin: miter; stroke-miterlimit: 4; fill: rgb(0,0,0); fill-rule: nonzero; opacity: 1;"  transform=" translate(-9.66, 8.49)" d="M 7.125 -6.1875 L 6.796875 0.34375 L 1.953125 0.09375 L 2.875 -17.875 L 8.75 -17.5625 C 13.644531 -17.3125 16.003906 -15.421875 15.828125 -11.890625 C 15.710938 -9.804688 14.609375 -8.242188 12.515625 -7.203125 L 17.359375 0.890625 L 11.84375 0.609375 L 8.359375 -6.125 Z M 7.3125 -9.84375 L 8.21875 -9.796875 C 9.914062 -9.703125 10.804688 -10.410156 10.890625 -11.921875 C 10.953125 -13.160156 10.148438 -13.828125 8.484375 -13.921875 L 7.53125 -13.96875 Z M 7.3125 -9.84375" stroke-linecap="round" />
</g>
		<g transform="matrix(1.33 0 0 1.33 29 130.25)"  >
<path style="stroke: none; stroke-width: 1; stroke-dasharray: none; stroke-linecap: butt; stroke-dashoffset: 0; stroke-linejoin: miter; stroke-miterlimit: 4; fill: rgb(0,0,0); fill-rule: nonzero; opacity: 1;"  transform=" translate(-4.95, 10.07)" d="M 11.84375 -15.359375 C 12.300781 -13.398438 12.078125 -11.75 11.171875 -10.40625 C 10.265625 -9.070312 8.742188 -8.15625 6.609375 -7.65625 L 5.296875 -7.359375 L 6.640625 -1.546875 L 1.90625 -0.4375 L -2.171875 -17.96875 L 3.875 -19.375 C 6.101562 -19.894531 7.882812 -19.796875 9.21875 -19.078125 C 10.5625 -18.367188 11.4375 -17.128906 11.84375 -15.359375 Z M 4.390625 -11.234375 L 5.25 -11.4375 C 5.957031 -11.59375 6.472656 -11.914062 6.796875 -12.40625 C 7.117188 -12.90625 7.203125 -13.507812 7.046875 -14.21875 C 6.765625 -15.40625 5.972656 -15.847656 4.671875 -15.546875 L 3.453125 -15.265625 Z M 4.390625 -11.234375" stroke-linecap="round" />
</g>
		<g transform="matrix(1.33 0 0 1.33 55.33 120.85)"  >
<path style="stroke: none; stroke-width: 1; stroke-dasharray: none; stroke-linecap: butt; stroke-dashoffset: 0; stroke-linejoin: miter; stroke-miterlimit: 4; fill: rgb(0,0,0); fill-rule: nonzero; opacity: 1;"  transform=" translate(-5.32, 12.41)" d="M 13.265625 -16.09375 C 14.535156 -13.34375 14.828125 -10.9375 14.140625 -8.875 C 13.453125 -6.820312 11.804688 -5.191406 9.203125 -3.984375 C 6.648438 -2.796875 4.351562 -2.601562 2.3125 -3.40625 C 0.28125 -4.207031 -1.367188 -5.984375 -2.640625 -8.734375 C -3.910156 -11.460938 -4.191406 -13.859375 -3.484375 -15.921875 C -2.785156 -17.992188 -1.144531 -19.628906 1.4375 -20.828125 C 4.039062 -22.023438 6.34375 -22.222656 8.34375 -21.421875 C 10.351562 -20.617188 11.992188 -18.84375 13.265625 -16.09375 Z M 2.015625 -10.875 C 3.472656 -7.71875 5.296875 -6.648438 7.484375 -7.671875 C 8.609375 -8.191406 9.265625 -8.957031 9.453125 -9.96875 C 9.640625 -10.988281 9.359375 -12.3125 8.609375 -13.9375 C 7.859375 -15.5625 7.023438 -16.632812 6.109375 -17.15625 C 5.203125 -17.6875 4.203125 -17.703125 3.109375 -17.203125 C 0.898438 -16.171875 0.535156 -14.0625 2.015625 -10.875 Z M 2.015625 -10.875" stroke-linecap="round" />
</g>
		<g transform="matrix(1.33 0 0 1.33 74.52 109.93)"  >
<path style="stroke: none; stroke-width: 1; stroke-dasharray: none; stroke-linecap: butt; stroke-dashoffset: 0; stroke-linejoin: miter; stroke-miterlimit: 4; fill: rgb(0,0,0); fill-rule: nonzero; opacity: 1;"  transform=" translate(1.49, 9.91)" d="M 1.609375 -1.109375 L -8.609375 -15.9375 L -4.59375 -18.703125 L 5.625 -3.875 Z M 1.609375 -1.109375" stroke-linecap="round" />
</g>
		<g transform="matrix(1.33 0 0 1.33 92 95.49)"  >
<path style="stroke: none; stroke-width: 1; stroke-dasharray: none; stroke-linecap: butt; stroke-dashoffset: 0; stroke-linejoin: miter; stroke-miterlimit: 4; fill: rgb(0,0,0); fill-rule: nonzero; opacity: 1;"  transform=" translate(-1.19, 13.8)" d="M 13.609375 -13.390625 L 9.046875 -8.90625 L -4.546875 -13.34375 L -4.625 -13.265625 C -3.101562 -11.953125 -1.972656 -10.921875 -1.234375 -10.171875 L 4.453125 -4.390625 L 1.390625 -1.375 L -11.234375 -14.203125 L -6.71875 -18.640625 L 6.734375 -14.3125 L 6.796875 -14.375 C 5.429688 -15.59375 4.363281 -16.59375 3.59375 -17.375 L -2.109375 -23.171875 L 0.984375 -26.21875 Z M 13.609375 -13.390625" stroke-linecap="round" />
</g>
		<g transform="matrix(1.33 0 0 1.33 107.4 72.48)"  >
<path style="stroke: none; stroke-width: 1; stroke-dasharray: none; stroke-linecap: butt; stroke-dashoffset: 0; stroke-linejoin: miter; stroke-miterlimit: 4; fill: rgb(0,0,0); fill-rule: nonzero; opacity: 1;"  transform=" translate(4.57, 13.02)" d="M 5.484375 -8.234375 L 2.796875 -4.1875 L -8.875 -11.96875 L -11.328125 -8.296875 L -14.625 -10.5 L -7.046875 -21.859375 L -3.75 -19.65625 L -6.1875 -16.015625 Z M 5.484375 -8.234375" stroke-linecap="round" />
</g>
</g>
</g>
<g transform="matrix(0.93 0 0 0.93 249.58 250.08)"  >
<g style=""   >
		<g transform="matrix(1.06 0 0 1.06 0.18 -82.55)" id="Layer_1-2"  >
<path style="stroke: none; stroke-width: 1; stroke-dasharray: none; stroke-linecap: butt; stroke-dashoffset: 0; stroke-linejoin: miter; stroke-miterlimit: 4; fill: rgb(240,125,0); fill-rule: nonzero; opacity: 1;"  transform=" translate(-77.76, -34.5)" d="M 60.63 69 L 77.76 41.5 L 94.89 69 a 24.31 24.31 0 0 0 9.81 -19.3 a 23.52 23.52 0 0 0 -3.36 -12.1 h 0.09 L 77.76 0 L 54.08 37.64 h 0.1 a 23.52 23.52 0 0 0 -3.36 12.1 A 24.31 24.31 0 0 0 60.63 69 Z" stroke-linecap="round" />
</g>
		<g transform="matrix(1.06 0 0 1.06 0.18 50.36)" id="Layer_1-2"  >
<path style="stroke: none; stroke-width: 1; stroke-dasharray: none; stroke-linecap: butt; stroke-dashoffset: 0; stroke-linejoin: miter; stroke-miterlimit: 4; fill: rgb(4,52,129); fill-rule: nonzero; opacity: 1;"  transform=" translate(-77.76, -159.88)" d="M 155.52 94.87 H 107.66 l -9 49.27 H 55.87 L 46.69 94.87 H 0 c 0 49.35 23 98.69 69 129.26 L 57.53 158.4 h 39 L 85.32 224.89 C 132.11 194.38 155.52 144.63 155.52 94.87 Z" stroke-linecap="round" />
</g>
		<g transform="matrix(1.06 0 0 1.06 0.18 -27.09)" id="Layer_1-2"  >
<polygon style="stroke: none; stroke-width: 1; stroke-dasharray: none; stroke-linecap: butt; stroke-dashoffset: 0; stroke-linejoin: miter; stroke-miterlimit: 4; fill: rgb(4,52,129); fill-rule: nonzero; opacity: 1;"  points="30.5,8.05 33.46,-8.05 -33.46,-8.05 -30.46,8.05 0.61,8.05 30.5,8.05 " />
</g>
</g>
</g>
</svg>