<svg width="375" height="100" xmlns="http://www.w3.org/2000/svg" version="1.0" preserveAspectRatio="xMidYMid meet" zoomAndPan="magnify">
 <g>
  <title>Layer 1</title>
  <g stroke="null" id="svg_17">
   <g stroke="null" id="svg_1" fill="#003882">
    <g stroke="null" id="svg_2">
     <g stroke="null" id="svg_3">
      <path stroke="null" id="svg_4" d="m63.93484,99.84353l-22.7192,0l-14.72888,-28.49809l-5.96666,3.56747l0,24.93062l-20.23656,0l0,-74.49977l20.23656,0l0,32.35765c0.84493,-1.6377 1.82025,-3.27541 2.92074,-4.90268c1.11092,-1.62727 2.19056,-3.17109 3.23368,-4.63146l15.64683,-22.82351l22.03073,0l-23.51197,33.3799l23.09472,41.11987l0.00001,0zm0,0"/>
     </g>
    </g>
   </g>
   <g stroke="null" id="svg_5" fill="#f07d00">
    <g stroke="null" id="svg_6">
     <g stroke="null" id="svg_7">
      <path stroke="null" id="svg_8" d="m374.71646,99.84353l-26.39098,0l-27.20462,-52.48989l-0.45897,0c0.1669,1.60119 0.31293,3.52054 0.4381,5.75803c0.1356,2.24272 0.25557,4.52714 0.35467,6.86373c0.10953,2.32617 0.1669,4.41763 0.1669,6.2796l0,33.58852l-17.83739,0l0,-74.49977l26.28667,0l27.12117,51.75971l0.31294,0c-0.11475,-1.62727 -0.21907,-3.51532 -0.31294,-5.67458c-0.0991,-2.15404 -0.18776,-4.33939 -0.2712,-6.55081c-0.08345,-2.21142 -0.12517,-4.16206 -0.12517,-5.86235l0,-33.67197l17.92083,0l0,74.49977l-0.00001,0.00001zm0,0"/>
     </g>
    </g>
   </g>
   <g stroke="null" id="svg_9" fill="#f07d00">
    <g stroke="null" id="svg_10">
     <g stroke="null" id="svg_11">
      <path stroke="null" id="svg_12" d="m272.86136,100l-3.67179,-13.95698l-24.20043,0l-3.77611,13.95698l-22.11418,0l24.30475,-74.8127l26.87082,0l24.61768,74.8127l-22.03073,0l-0.00001,0zm-7.84428,-30.48003l-3.21282,-12.22539c-0.3338,-1.31955 -0.82929,-3.21282 -1.48124,-5.67458c-0.64152,-2.4722 -1.28304,-5.02784 -1.91934,-7.65651c-0.62587,-2.62867 -1.1057,-4.78793 -1.4395,-6.48822c-0.30772,1.70029 -0.74584,3.79696 -1.31434,6.30046c-0.55807,2.49306 -1.137,4.96005 -1.73158,7.40617c-0.58415,2.45134 -1.1005,4.48542 -1.54382,6.11269l-3.21282,12.22539l15.85545,0l0.00001,-0.00001zm0,0"/>
     </g>
    </g>
   </g>
   <g stroke="null" id="svg_13" fill="#003882">
    <g stroke="null" id="svg_14">
     <g stroke="null" id="svg_15">
      <path stroke="null" id="svg_16" d="m189.76037,100l-3.67179,-13.95698l-24.20043,0l-3.77611,13.95698l-22.11418,0l24.30475,-74.8127l26.87082,0l24.61768,74.8127l-22.03073,0l-0.00001,0zm-7.84428,-30.48003l-3.21282,-12.22539c-0.3338,-1.31955 -0.82929,-3.21282 -1.48124,-5.67458c-0.64152,-2.4722 -1.28304,-5.02784 -1.91934,-7.65651c-0.62587,-2.62867 -1.1057,-4.78793 -1.4395,-6.48822c-0.30772,1.70029 -0.74584,3.79696 -1.31434,6.30046c-0.55807,2.49306 -1.137,4.96005 -1.73158,7.40617c-0.58415,2.45134 -1.1005,4.48542 -1.54382,6.11269l-3.21282,12.22539l15.85545,0l0.00001,-0.00001zm0,0"/>
     </g>
    </g>
   </g>
  </g>
  <g id="svg_20" stroke="null">
   <title stroke="null">Kiaan</title>
   <g id="svg_18" data-name="Layer 2" stroke="null">
    <g id="svg_19" data-name="Layer 1" stroke="null"/>
   </g>
  </g>
  <g stroke="null">

   <title stroke="null">Kiaan</title>
   <g stroke="null" data-name="Layer 2" id="svg_21">
    <g stroke="null" data-name="Layer 1" id="svg_22">
     <path stroke="null" fill="#f07d00" d="m95.42366,30.36736l7.53903,-12.10293l7.53903,12.10293a10.69899,10.69899 0 0 0 4.31745,-8.49406a10.35131,10.35131 0 0 0 -1.47876,-5.32529l0.03961,0l-10.41732,-16.54801l-10.42172,16.56561l0.04401,0a10.35131,10.35131 0 0 0 -1.47876,5.32529a10.69899,10.69899 0 0 0 4.31745,8.47645z" class="cls-1"/>
     <path stroke="null" fill="#043481" d="m137.18538,41.75292l-21.0635,0l-3.96096,21.68405l-18.83216,0l-4.04018,-21.68405l-20.54858,0c0,21.71926 10.12245,43.43412 30.36736,56.88818l-5.04802,-28.92821l17.16416,0l-4.9336,29.26269c20.59259,-13.42765 30.89549,-35.32296 30.89549,-57.22266z" class="cls-2"/>
     <polygon stroke="null" fill="#043481" points="116.38594055175781,41.75291442871094 117.68865203857422,34.671600341796875 88.23670959472656,34.671600341796875 89.55703735351562,41.75291442871094 103.23115539550781,41.75291442871094 116.38594055175781,41.75291442871094 " class="cls-2"/>
    </g>
   </g>
  </g>
 </g>

</svg>